<svg width="48" height="48" viewBox="0 0 48 48" fill="none" xmlns="http://www.w3.org/2000/svg">
<path opacity="0.36" d="M10 13C10 10.2044 10 8.80653 10.4567 7.7039C11.0657 6.23373 12.2337 5.06569 13.7039 4.45672C14.8065 4 16.2044 4 19 4H29C31.7956 4 33.1935 4 34.2961 4.45672C35.7663 5.06569 36.9343 6.23373 37.5433 7.7039C38 8.80653 38 10.2044 38 13V14C38 17.7226 38 19.5838 37.5106 21.0902C36.5214 24.1345 34.1345 26.5214 31.0902 27.5106C29.5838 28 27.7226 28 24 28V28C20.2774 28 18.4162 28 16.9098 27.5106C13.8655 26.5214 11.4786 24.1345 10.4894 21.0902C10 19.5838 10 17.7226 10 14V13Z" fill="url(#paint0_linear_229_5706)"/>
<path fill-rule="evenodd" clip-rule="evenodd" d="M18.9632 3H19H29H29.0368C30.4035 3 31.4801 2.99999 32.351 3.05941C33.2387 3.11997 33.9853 3.2456 34.6788 3.53284C36.394 4.2433 37.7567 5.60602 38.4672 7.32122C38.6816 7.83898 38.806 8.38639 38.8805 9H42C44.7614 9 47 11.2386 47 14C47 18.9706 42.9706 23 38 23C37.9342 23 37.8698 22.9936 37.8075 22.9815C36.4949 25.5661 34.2 27.5516 31.3992 28.4616C29.8658 28.9598 28.034 28.9972 25 28.9998V35H26.6667C30.1645 35 33 37.8355 33 41.3333C33 43.3584 31.3584 45 29.3333 45H18.6667C16.6416 45 15 43.3584 15 41.3333C15 37.8355 17.8355 35 21.3333 35H23V28.9998C19.966 28.9972 18.1342 28.9598 16.6008 28.4616C13.8 27.5516 11.5051 25.5661 10.1925 22.9815C10.1302 22.9936 10.0658 23 10 23C5.02944 23 1 18.9706 1 14C1 11.2386 3.23858 9 6 9H9.11955C9.19401 8.38639 9.31838 7.83898 9.53284 7.32122C10.2433 5.60602 11.606 4.2433 13.3212 3.53284C14.0147 3.2456 14.7613 3.11997 15.649 3.05941C16.5199 2.99999 17.5965 3 18.9632 3ZM24 27C27.8004 27 29.4634 26.9877 30.7812 26.5595C33.5211 25.6692 35.6693 23.5211 36.5595 20.7812C36.9877 19.4634 37 17.8004 37 14V13C37 11.5885 36.9995 10.5799 36.9452 9.78514C36.8916 8.99931 36.7889 8.49574 36.6194 8.08658C36.1119 6.86144 35.1386 5.88807 33.9134 5.3806C33.5043 5.21112 33.0007 5.10839 32.2149 5.05477C31.4201 5.00054 30.4115 5 29 5H19C17.5885 5 16.5799 5.00054 15.7851 5.05477C14.9993 5.10839 14.4957 5.21112 14.0866 5.3806C12.8614 5.88807 11.8881 6.86144 11.3806 8.08658C11.2111 8.49574 11.1084 8.99931 11.0548 9.78514C11.0005 10.5799 11 11.5885 11 13V14C11 17.8004 11.0123 19.4634 11.4405 20.7812C12.3308 23.5211 14.4789 25.6692 17.2188 26.5595C18.5366 26.9877 20.1996 27 24 27ZM24 37H21.3333C18.9401 37 17 38.9401 17 41.3333C17 42.2538 17.7462 43 18.6667 43H29.3333C30.2538 43 31 42.2538 31 41.3333C31 38.9401 29.0599 37 26.6667 37H24ZM39 12.9613C39 12.2285 39 11.579 38.9908 11H42C43.6569 11 45 12.3431 45 14C45 17.6688 42.1776 20.6783 38.5856 20.9758C39.0004 19.3953 39.0002 17.4415 39 14.2344L39 14V13V12.9631V12.9613ZM9.00918 11H6C4.34315 11 3 12.3431 3 14C3 17.6688 5.82241 20.6783 9.41437 20.9758C8.99961 19.3953 8.99975 17.4415 8.99999 14.2344L9 14V13V12.9632C9 12.2296 9 11.5795 9.00918 11Z" fill="url(#paint1_linear_229_5706)"/>
<defs>
<linearGradient id="paint0_linear_229_5706" x1="38" y1="28" x2="14.2823" y2="0.329433" gradientUnits="userSpaceOnUse">
<stop stop-color="#3365FA"/>
<stop offset="1" stop-color="#5DCCFF"/>
</linearGradient>
<linearGradient id="paint1_linear_229_5706" x1="47" y1="45" x2="5.17315" y2="-0.810272" gradientUnits="userSpaceOnUse">
<stop stop-color="#3365FA"/>
<stop offset="1" stop-color="#5DCCFF"/>
</linearGradient>
</defs>
</svg>
