<svg width="133" height="33" viewBox="0 0 133 33" fill="none" xmlns="http://www.w3.org/2000/svg">
<g clip-path="url(#clip0_662_2023)">
<path d="M16.1189 5.02002C9.91637 5.02002 4.8689 10.0675 4.8689 16.27C4.8689 22.4726 9.91637 27.5201 16.1189 27.5201C22.3215 27.5201 27.369 22.4726 27.369 16.27C27.369 10.0675 22.3231 5.02002 16.1189 5.02002ZM16.1189 25.0204C11.2858 25.0204 7.36853 21.1031 7.36853 16.27C7.36853 11.437 11.2858 7.51966 16.1189 7.51966C20.952 7.51966 24.8693 11.437 24.8693 16.27C24.8693 21.1031 20.952 25.0204 16.1189 25.0204Z" fill="white"/>
<path d="M16.1189 0.27002C7.29704 0.27002 0.118896 7.44816 0.118896 16.27C0.118896 25.0919 7.29704 32.27 16.1189 32.27C24.9408 32.27 32.1189 25.0919 32.1189 16.27C32.1189 7.44816 24.9408 0.27002 16.1189 0.27002ZM16.1189 29.7704C8.6632 29.7704 2.61853 23.7257 2.61853 16.27C2.61853 8.81432 8.6632 2.76966 16.1189 2.76966C23.5746 2.76966 29.6193 8.81432 29.6193 16.27C29.6193 23.7257 23.5746 29.7704 16.1189 29.7704Z" fill="white"/>
<path d="M16.1189 9.7699C12.534 9.7699 9.6189 12.685 9.6189 16.2699C9.6189 19.8549 12.534 22.77 16.1189 22.77C19.7039 22.77 22.619 19.8549 22.619 16.2699C22.619 12.685 19.7039 9.7699 16.1189 9.7699ZM16.1189 20.2704C13.9102 20.2704 12.1185 18.4787 12.1185 16.2699C12.1185 14.0612 13.9102 12.2695 16.1189 12.2695C18.3277 12.2695 20.1194 14.0612 20.1194 16.2699C20.1194 18.4787 18.3277 20.2704 16.1189 20.2704Z" fill="white"/>
<path d="M51.2302 8.83594H48.5577C48.2253 8.83594 47.9843 9.07693 47.9843 9.40933V10.1639C46.8226 9.21321 45.3584 8.65479 43.7113 8.65479C39.666 8.65479 36.1177 11.9605 36.1177 16.2634C36.1177 20.5663 39.666 23.8869 43.7113 23.8869C45.3567 23.8869 46.8209 23.3285 47.9843 22.3779V23.1324C47.9843 23.4648 48.2253 23.7058 48.5577 23.7058H51.2302C51.5476 23.7058 51.7886 23.4648 51.7886 23.1324V9.40933C51.7886 9.07693 51.5476 8.83594 51.2302 8.83594ZM43.9689 20.3087C41.795 20.3087 39.9835 18.4522 39.9835 16.2634C39.9835 14.0745 41.795 12.2331 43.9689 12.2331C46.1428 12.2331 47.9843 14.0895 47.9843 16.2634C47.9843 18.4373 46.2176 20.3087 43.9689 20.3087Z" fill="white"/>
<path d="M56.3358 8.83594H53.6634C53.331 8.83594 53.09 9.07693 53.09 9.40932V23.1324C53.09 23.4648 53.331 23.7058 53.6634 23.7058H56.3358C56.6533 23.7058 56.8943 23.4648 56.8943 23.1324V9.40932C56.8943 9.07693 56.6533 8.83594 56.3358 8.83594Z" fill="white"/>
<path d="M66.9012 8.65479H65.9837C64.5793 8.65479 62.9788 9.1833 61.9983 10.2702V9.40933C61.9983 9.07693 61.7573 8.83594 61.4398 8.83594H58.7674C58.435 8.83594 58.194 9.07693 58.194 9.40933V23.1324C58.194 23.4648 58.435 23.7058 58.7674 23.7058H61.4398C61.7573 23.7058 61.9983 23.4648 61.9983 23.1324V15.8861C61.9983 13.1688 63.765 12.2929 66.1499 12.2929H66.9759C67.2934 12.2929 67.5344 12.0669 67.5344 11.7494V9.19826C67.5344 8.88082 67.3083 8.65479 66.9012 8.65479Z" fill="white"/>
<path d="M76.4826 8.65474C74.8372 8.65474 73.373 9.19821 72.2096 10.089V3.35299C72.2096 3.03554 71.9686 2.79456 71.6511 2.79456H68.9787C68.6463 2.79456 68.4053 3.03554 68.4053 3.35299V23.1324C68.4053 23.4648 68.6463 23.7057 68.9787 23.7057H71.6511C71.9686 23.7057 72.2096 23.4648 72.2096 23.1324V22.4077C73.3713 23.3434 74.8355 23.8869 76.4826 23.8869C80.5278 23.8869 84.0762 20.5513 84.0762 16.2633C84.0762 11.9754 80.5278 8.65474 76.4826 8.65474ZM76.2266 20.3086C73.9779 20.3086 72.2112 18.4522 72.2112 16.2633C72.2112 14.0745 73.9779 12.233 76.2266 12.233C78.4753 12.233 80.2121 14.0895 80.2121 16.2633C80.2121 18.4372 78.4005 20.3086 76.2266 20.3086Z" fill="white"/>
<path d="M131.563 2.79456H128.89C128.558 2.79456 128.317 3.03554 128.317 3.35299V10.104C127.155 9.19821 125.691 8.65474 124.044 8.65474C119.998 8.65474 116.45 11.9604 116.45 16.2633C116.45 20.5662 119.998 23.8869 124.044 23.8869C125.689 23.8869 127.153 23.3434 128.317 22.3928V23.1324C128.317 23.4648 128.558 23.7057 128.89 23.7057H131.563C131.88 23.7057 132.121 23.4648 132.121 23.1324V3.35299C132.121 3.03554 131.88 2.79456 131.563 2.79456ZM124.301 20.3086C122.127 20.3086 120.316 18.4522 120.316 16.2633C120.316 14.0745 122.127 12.233 124.301 12.233C126.475 12.233 128.317 14.0895 128.317 16.2633C128.317 18.4372 126.55 20.3086 124.301 20.3086Z" fill="white"/>
<path d="M100.06 8.83594H97.387C97.0546 8.83594 96.8136 9.07693 96.8136 9.40933V10.1639C95.6519 9.21321 94.1877 8.65479 92.5407 8.65479C88.4954 8.65479 84.947 11.9605 84.947 16.2634C84.947 20.5663 88.4954 23.8869 92.5407 23.8869C94.186 23.8869 95.6503 23.3285 96.8136 22.3779V23.1324C96.8136 23.4648 97.0546 23.7058 97.387 23.7058H100.06C100.377 23.7058 100.618 23.4648 100.618 23.1324V9.40933C100.618 9.07693 100.377 8.83594 100.06 8.83594ZM92.7983 20.3087C90.6244 20.3087 88.8128 18.4522 88.8128 16.2634C88.8128 14.0745 90.6244 12.2331 92.7983 12.2331C94.9722 12.2331 96.8136 14.0895 96.8136 16.2634C96.8136 18.4373 95.047 20.3087 92.7983 20.3087Z" fill="white"/>
<path d="M109.677 8.65479C107.956 8.65479 106.643 9.24313 105.722 10.104V9.40933C105.722 9.07693 105.481 8.83594 105.163 8.83594H102.491C102.159 8.83594 101.918 9.07693 101.918 9.40933V23.1324C101.918 23.4648 102.159 23.7058 102.491 23.7058H105.163C105.481 23.7058 105.722 23.4648 105.722 23.1324V15.8263C105.722 13.2302 106.869 12.2945 108.817 12.2945C110.884 12.2945 111.775 13.5926 111.775 15.7066V23.1341C111.775 23.4665 112.016 23.7075 112.348 23.7075H115.021C115.338 23.7075 115.579 23.4665 115.579 23.1341V15.3593C115.579 10.4531 112.77 8.65645 109.676 8.65645L109.677 8.65479Z" fill="white"/>
</g>
<defs>
<clipPath id="clip0_662_2023">
<rect width="132.002" height="32" fill="white" transform="translate(0.118896 0.27002)"/>
</clipPath>
</defs>
</svg>
