<svg width="24" height="25" viewBox="0 0 24 25" fill="none" xmlns="http://www.w3.org/2000/svg">
<rect x="2" y="2.5" width="20" height="20" rx="5" fill="url(#paint0_radial_280_2195)"/>
<path fill-rule="evenodd" clip-rule="evenodd" d="M9.95624 1.5L10 1.5H14L14.0438 1.5C15.4068 1.49999 16.4908 1.49999 17.3654 1.57144C18.261 1.64462 19.0247 1.79768 19.7239 2.15396C20.8529 2.7292 21.7708 3.64708 22.346 4.77606C22.7023 5.4753 22.8554 6.23898 22.9286 7.13458C23 8.00916 23 9.09318 23 10.4562V10.5V14.5V14.5438C23 15.9068 23 16.9908 22.9286 17.8654C22.8554 18.761 22.7023 19.5247 22.346 20.2239C21.7708 21.3529 20.8529 22.2708 19.7239 22.846C19.0247 23.2023 18.261 23.3554 17.3654 23.4286C16.4908 23.5 15.4068 23.5 14.0438 23.5H14H10H9.95622C8.59318 23.5 7.50916 23.5 6.63458 23.4286C5.73898 23.3554 4.9753 23.2023 4.27606 22.846C3.14708 22.2708 2.2292 21.3529 1.65396 20.2239C1.29768 19.5247 1.14462 18.761 1.07144 17.8654C0.999986 16.9908 0.999992 15.9068 1 14.5438L1 14.5V10.5L1 10.4562C0.999992 9.0932 0.999986 8.00917 1.07144 7.13458C1.14462 6.23898 1.29768 5.4753 1.65396 4.77606C2.2292 3.64708 3.14708 2.7292 4.27606 2.15396C4.9753 1.79768 5.73898 1.64462 6.63458 1.57144C7.50917 1.49999 8.5932 1.49999 9.95624 1.5ZM6.79744 3.5648C6.02552 3.62787 5.55435 3.74729 5.18404 3.93597C4.43139 4.31947 3.81947 4.93139 3.43597 5.68404C3.24729 6.05435 3.12787 6.52552 3.0648 7.29744C3.00078 8.08104 3 9.08337 3 10.5V14.5C3 15.9166 3.00078 16.919 3.0648 17.7026C3.12787 18.4745 3.24729 18.9457 3.43597 19.316C3.81947 20.0686 4.43139 20.6805 5.18404 21.064C5.55435 21.2527 6.02552 21.3721 6.79744 21.4352C7.58104 21.4992 8.58337 21.5 10 21.5H14C15.4166 21.5 16.419 21.4992 17.2026 21.4352C17.9745 21.3721 18.4457 21.2527 18.816 21.064C19.5686 20.6805 20.1805 20.0686 20.564 19.316C20.7527 18.9457 20.8721 18.4745 20.9352 17.7026C20.9992 16.919 21 15.9166 21 14.5V10.5C21 9.08337 20.9992 8.08104 20.9352 7.29744C20.8721 6.52552 20.7527 6.05435 20.564 5.68404C20.1805 4.93139 19.5686 4.31947 18.816 3.93597C18.4457 3.74729 17.9745 3.62787 17.2026 3.5648C16.419 3.50078 15.4166 3.5 14 3.5H10C8.58337 3.5 7.58104 3.50078 6.79744 3.5648Z" fill="url(#paint1_linear_280_2195)"/>
<path d="M9 11L9.375 11.375L12 14L14.625 11.375L15 11" stroke="url(#paint2_linear_280_2195)" stroke-width="2" stroke-linecap="round" stroke-linejoin="round"/>
<defs>
<radialGradient id="paint0_radial_280_2195" cx="0" cy="0" r="1" gradientUnits="userSpaceOnUse" gradientTransform="translate(12.0429 2.5) rotate(90) scale(31.5385 15.7082)">
<stop stop-color="white" stop-opacity="0.12"/>
<stop offset="1" stop-color="white" stop-opacity="0.02"/>
</radialGradient>
<linearGradient id="paint1_linear_280_2195" x1="12" y1="1.5" x2="12" y2="23.5" gradientUnits="userSpaceOnUse">
<stop stop-color="#474754"/>
<stop offset="1" stop-color="#32333D"/>
</linearGradient>
<linearGradient id="paint2_linear_280_2195" x1="15" y1="14" x2="12.6" y2="9.2" gradientUnits="userSpaceOnUse">
<stop stop-color="#3365FA"/>
<stop offset="1" stop-color="#5DCCFF"/>
</linearGradient>
</defs>
</svg>
